<?xml version="1.0" standalone="no"?>
<!DOCTYPE svg PUBLIC "-//W3C//DTD SVG 20010904//EN"
 "http://www.w3.org/TR/2001/REC-SVG-20010904/DTD/svg10.dtd">
<svg version="1.0" xmlns="http://www.w3.org/2000/svg"
 width="626.000000pt" height="626.000000pt" viewBox="0 0 626.000000 626.000000"
 preserveAspectRatio="xMidYMid meet">

<g transform="translate(0.000000,626.000000) scale(0.100000,-0.100000)"
fill="#000000" stroke="none">
<path d="M3553 5131 c-22 -16 -50 -42 -61 -59 l-21 -29 58 -6 c76 -8 212 -44
280 -74 30 -13 56 -21 59 -19 13 14 -15 66 -57 107 -50 48 -159 109 -196 109
-12 0 -40 -13 -62 -29z"/>
<path d="M3380 5020 c0 -5 -7 -7 -17 -3 -13 5 -15 2 -11 -15 4 -14 1 -25 -9
-31 -12 -6 -14 -16 -9 -37 4 -16 7 -47 6 -70 0 -26 5 -46 15 -54 8 -7 15 -25
15 -40 0 -70 81 -99 127 -46 12 15 23 34 23 42 0 15 18 18 35 6 6 -4 12 -18
12 -31 6 -80 118 -80 146 1 10 28 45 9 68 -38 19 -41 37 -53 52 -38 3 4 -1 20
-9 36 -18 35 -18 34 22 42 26 6 32 3 41 -16 9 -20 10 -19 17 20 4 30 2 51 -9
73 -28 54 -154 118 -275 141 -94 18 -210 50 -216 59 -7 12 -24 11 -24 -1z
m190 -104 c29 -14 59 -22 67 -19 8 3 24 -4 36 -15 12 -11 36 -22 52 -24 28 -3
30 -7 33 -45 2 -24 2 -43 0 -43 -2 0 -21 7 -43 15 -22 8 -71 14 -109 15 -38 0
-98 5 -133 11 -57 10 -63 13 -63 35 0 14 6 24 15 24 8 0 30 16 49 35 20 19 37
35 40 35 2 0 28 -11 56 -24z"/>
<path d="M3620 4850 c0 -5 19 -10 43 -10 31 0 38 3 27 10 -20 13 -70 13 -70 0z"/>
<path d="M3450 4840 c0 -5 14 -10 31 -10 17 0 28 4 24 10 -3 6 -17 10 -31 10
-13 0 -24 -4 -24 -10z"/>
<path d="M2460 4811 c-77 -24 -140 -85 -167 -164 -8 -23 -18 -102 -23 -177
-11 -159 -19 -192 -65 -260 -19 -29 -35 -54 -35 -56 0 -2 18 -4 40 -4 23 0 40
-5 40 -11 0 -6 -7 -9 -15 -5 -8 3 -15 1 -15 -3 0 -5 5 -11 11 -13 7 -2 4 -24
-10 -63 -13 -36 -17 -63 -12 -68 11 -11 -3 -57 -22 -72 -7 -5 -22 -28 -34 -50
-11 -22 -26 -39 -31 -38 -6 2 -14 -7 -18 -20 -9 -28 -43 -77 -54 -77 -5 0 -7
26 -5 58 6 77 7 82 17 82 5 0 6 5 3 10 -3 6 -2 10 4 10 6 0 8 7 5 15 -4 9 -1
15 7 15 8 0 6 5 -5 13 -17 12 -17 16 -2 50 8 21 22 37 31 37 9 0 13 5 10 10
-3 6 -1 10 5 10 6 0 8 5 5 10 -3 6 0 10 7 10 9 0 9 3 -2 10 -13 8 -13 10 1 10
19 0 34 40 16 40 -9 0 -9 2 0 8 26 17 -7 30 -115 46 -104 15 -122 21 -225 75
-84 44 -119 69 -138 97 -39 56 -99 85 -143 68 -22 -9 -20 -21 5 -27 21 -6 21
-9 14 -104 -4 -53 -11 -108 -16 -121 l-9 -23 -29 20 -28 21 -7 -38 c-11 -70
-7 -92 23 -123 34 -33 77 -38 97 -11 11 15 14 13 29 -21 22 -53 81 -114 134
-142 25 -12 91 -37 146 -54 55 -17 114 -40 132 -50 32 -20 32 -21 18 -54 -8
-19 -25 -112 -38 -208 -24 -166 -27 -179 -77 -284 -100 -212 -190 -445 -190
-492 0 -75 11 -85 88 -82 74 3 112 -6 112 -25 0 -13 -36 -267 -93 -661 -32
-213 -33 -239 -25 -355 4 -69 19 -279 32 -468 13 -189 27 -346 31 -350 8 -8
326 -5 334 3 2 3 10 227 17 498 l12 492 80 310 c44 171 82 303 85 295 3 -8 31
-382 62 -830 32 -448 60 -817 62 -820 3 -3 71 -5 153 -5 82 0 150 2 153 5 2 3
6 192 8 420 l4 415 -100 6 c-159 9 -215 46 -255 168 -30 93 -47 269 -31 343
29 136 128 201 327 215 57 4 93 2 97 -4 4 -6 18 -8 32 -5 26 4 30 18 19 60 -5
19 -9 20 -21 10 -14 -11 -15 -5 -9 47 7 66 18 253 17 300 0 17 -13 112 -28
213 -23 159 -25 185 -13 193 27 17 113 39 152 39 38 0 38 0 38 -40 0 -22 4
-40 9 -40 12 0 32 52 33 87 1 39 -8 53 -34 53 -21 0 -92 37 -137 72 l-24 18
24 1 c22 1 -12 7 -158 24 l-51 6 -9 62 c-8 60 -9 62 -52 82 -24 12 -49 29 -56
38 -10 14 -14 -3 -24 -101 -13 -134 -10 -152 44 -218 l35 -42 -43 -17 c-75
-31 -500 -69 -534 -47 -8 5 -5 33 13 107 18 77 24 127 24 218 0 65 5 127 10
137 6 11 32 41 58 67 42 42 52 61 80 148 19 60 38 152 47 230 9 72 18 137 21
145 6 21 51 40 93 40 20 1 52 10 71 21 29 17 31 19 10 15 -103 -20 -120 -19
-159 7 -53 35 -71 79 -71 174 0 96 22 239 44 281 19 36 62 72 87 72 10 0 26
-13 35 -29 10 -17 39 -42 66 -56 37 -20 48 -32 48 -50 0 -21 -3 -23 -34 -18
-53 8 -52 -14 2 -27 51 -12 118 -62 107 -80 -10 -17 15 -50 38 -50 51 0 77 55
77 160 0 43 -7 67 -30 106 -60 105 -169 155 -270 125z"/>
<path d="M3525 4711 c-16 -51 -14 -71 8 -71 8 0 7 4 -2 9 -12 8 -12 16 3 56
10 25 16 48 13 51 -3 3 -12 -17 -22 -45z"/>
<path d="M2347 4623 c-15 -14 -6 -23 23 -23 32 0 40 14 14 24 -20 8 -29 8 -37
-1z"/>
<path d="M2827 4573 c7 -67 -11 -117 -53 -151 -26 -20 -34 -35 -34 -59 0 -35
-22 -63 -50 -63 -20 0 -19 4 -43 -143 -15 -85 -15 -85 43 -110 39 -17 24 -21
-33 -8 -20 5 -39 6 -41 2 -2 -3 4 -51 14 -106 10 -55 19 -90 19 -77 1 13 -4
54 -10 93 -7 38 -9 72 -6 75 3 4 71 -6 151 -21 91 -17 159 -25 180 -21 33 6
34 8 26 37 -5 17 -27 50 -49 74 -44 48 -47 59 -55 245 -6 114 -24 208 -50 257
-13 25 -13 23 -9 -24z"/>
<path d="M3581 4599 c-16 -13 -18 -19 -8 -19 15 0 43 27 36 34 -2 3 -15 -4
-28 -15z"/>
<path d="M2326 4542 c-3 -6 10 -12 29 -14 22 -2 34 0 32 6 -5 14 -53 20 -61 8z"/>
<path d="M2400 4471 c-33 -66 -33 -75 2 -84 22 -6 22 -6 3 9 -19 14 -19 15 8
70 16 31 26 59 23 61 -3 3 -19 -23 -36 -56z"/>
<path d="M2496 4521 c-3 -5 10 -11 29 -13 36 -4 47 5 19 16 -22 9 -42 7 -48
-3z"/>
<path d="M2322 4503 c2 -10 10 -18 18 -18 22 0 18 29 -3 33 -14 3 -18 -1 -15
-15z"/>
<path d="M2486 4492 c-8 -13 11 -35 23 -28 16 10 14 36 -3 36 -8 0 -17 -4 -20
-8z"/>
<path d="M3826 4408 c-3 -29 -6 -72 -6 -95 0 -28 -7 -51 -19 -65 -11 -13 -28
-34 -39 -47 l-19 -24 -21 21 c-15 15 -34 22 -62 22 -34 0 -42 -4 -52 -25 l-11
-26 -33 32 c-18 18 -31 36 -28 41 3 5 0 7 -7 6 -8 -2 -11 16 -10 65 2 38 -2
67 -7 67 -19 0 -63 -63 -74 -106 -13 -48 -22 -54 -37 -26 -26 44 -26 44 -65
21 l-37 -21 36 -44 35 -43 -16 -40 c-15 -39 -18 -41 -59 -41 l-42 0 -6 51 c-6
49 -12 67 -21 58 -2 -2 0 -27 3 -56 l7 -51 -55 -16 c-31 -9 -63 -21 -71 -26
-22 -14 -9 -12 55 10 38 13 86 20 146 21 49 1 89 5 89 9 0 5 -9 6 -20 3 -22
-6 -28 20 -10 47 9 13 12 12 25 -4 8 -11 15 -26 15 -33 0 -10 19 -13 73 -13
66 0 86 6 231 65 88 36 162 61 165 56 4 -5 17 -48 30 -95 27 -95 41 -112 17
-19 -8 32 -17 100 -20 151 -4 76 -10 105 -35 158 -16 35 -32 64 -34 64 -2 0
-7 -24 -11 -52z m-6 -181 c0 -16 -9 -28 -25 -35 l-25 -12 23 35 c12 19 23 35
25 35 1 0 2 -11 2 -23z m-109 -48 c8 -16 6 -21 -13 -28 -20 -7 -24 -5 -29 18
-6 25 -7 25 -8 -5 0 -18 -7 -34 -16 -38 -12 -4 -14 0 -11 18 8 44 24 65 46 59
11 -3 25 -14 31 -24z m-121 -72 c-4 -5 -23 -10 -41 -10 -34 -2 -34 -2 -37 47
l-3 48 45 -38 c24 -22 41 -43 36 -47z"/>
<path d="M2456 4364 c-3 -8 -9 -13 -13 -11 -5 3 -14 -1 -21 -9 -11 -12 -10
-15 2 -20 26 -10 46 4 46 31 0 29 -5 32 -14 9z"/>
<path d="M3990 4329 c-6 -11 -10 -28 -8 -37 2 -10 8 -1 15 21 12 41 10 48 -7
16z"/>
<path d="M4100 4279 c-7 -12 -14 -52 -16 -88 -1 -36 0 -52 2 -36 3 17 12 54
20 84 16 57 13 77 -6 40z"/>
<path d="M4280 4044 l-25 -15 25 7 c14 3 32 10 40 15 13 7 13 8 0 8 -8 0 -26
-6 -40 -15z"/>
<path d="M2186 4025 c-9 -26 -7 -32 5 -12 6 10 9 21 6 23 -2 3 -7 -2 -11 -11z"/>
<path d="M2093 3983 c-3 -10 -8 -22 -11 -27 -3 -5 0 -6 5 -3 11 7 25 47 17 47
-3 0 -7 -8 -11 -17z"/>
<path d="M4083 3978 c3 -13 11 -51 18 -85 6 -35 16 -63 21 -63 5 0 7 8 5 18
-3 9 -11 47 -18 85 -7 37 -17 67 -22 67 -5 0 -7 -10 -4 -22z"/>
<path d="M2170 3980 c-9 -28 -8 -50 2 -50 6 0 8 3 5 7 -4 3 1 12 11 20 9 8 12
12 5 9 -6 -4 -14 0 -16 6 -3 7 -6 11 -7 8z"/>
<path d="M2142 3895 c-17 -37 -14 -45 4 -12 9 16 14 31 11 33 -2 2 -9 -7 -15
-21z"/>
<path d="M3252 3900 c0 -14 2 -19 5 -12 2 6 2 18 0 25 -3 6 -5 1 -5 -13z"/>
<path d="M3591 3884 c0 -11 3 -14 6 -6 3 7 2 16 -1 19 -3 4 -6 -2 -5 -13z"/>
<path d="M3262 3840 c0 -14 2 -19 5 -12 2 6 2 18 0 25 -3 6 -5 1 -5 -13z"/>
<path d="M3601 3834 c0 -11 3 -14 6 -6 3 7 2 16 -1 19 -3 4 -6 -2 -5 -13z"/>
<path d="M2650 3808 c0 -14 -3 -40 -6 -57 -5 -25 -3 -31 10 -31 14 0 16 8 10
53 -7 58 -14 74 -14 35z"/>
<path d="M4253 3818 c-47 -16 -42 -32 8 -24 49 8 104 -6 153 -39 20 -13 36
-20 36 -15 0 5 -15 19 -32 31 -18 12 -38 29 -45 36 -15 19 -80 25 -120 11z"/>
<path d="M3272 3790 c0 -14 2 -19 5 -12 2 6 2 18 0 25 -3 6 -5 1 -5 -13z"/>
<path d="M2972 3780 c0 -14 2 -19 5 -12 2 6 2 18 0 25 -3 6 -5 1 -5 -13z"/>
<path d="M3611 3784 c0 -11 3 -14 6 -6 3 7 2 16 -1 19 -3 4 -6 -2 -5 -13z"/>
<path d="M3621 3744 c0 -11 3 -14 6 -6 3 7 2 16 -1 19 -3 4 -6 -2 -5 -13z"/>
<path d="M2982 3730 c0 -14 4 -38 8 -55 7 -27 8 -27 8 -5 0 14 -4 39 -8 55 -7
27 -8 27 -8 5z"/>
<path d="M3281 3734 c0 -11 3 -14 6 -6 3 7 2 16 -1 19 -3 4 -6 -2 -5 -13z"/>
<path d="M3631 3694 c0 -11 3 -14 6 -6 3 7 2 16 -1 19 -3 4 -6 -2 -5 -13z"/>
<path d="M3292 3675 c0 -16 2 -22 5 -12 2 9 2 23 0 30 -3 6 -5 -1 -5 -18z"/>
<path d="M3642 3650 c0 -14 2 -19 5 -12 2 6 2 18 0 25 -3 6 -5 1 -5 -13z"/>
<path d="M3002 3620 c0 -14 2 -19 5 -12 2 6 2 18 0 25 -3 6 -5 1 -5 -13z"/>
<path d="M3302 3620 c0 -14 2 -19 5 -12 2 6 2 18 0 25 -3 6 -5 1 -5 -13z"/>
<path d="M3651 3594 c0 -11 3 -14 6 -6 3 7 2 16 -1 19 -3 4 -6 -2 -5 -13z"/>
<path d="M3012 3560 c0 -14 2 -19 5 -12 2 6 2 18 0 25 -3 6 -5 1 -5 -13z"/>
<path d="M3311 3564 c0 -11 3 -14 6 -6 3 7 2 16 -1 19 -3 4 -6 -2 -5 -13z"/>
<path d="M4083 3573 c9 -2 25 -2 35 0 9 3 1 5 -18 5 -19 0 -27 -2 -17 -5z"/>
<path d="M3661 3554 c0 -11 3 -14 6 -6 3 7 2 16 -1 19 -3 4 -6 -2 -5 -13z"/>
<path d="M3021 3504 c0 -11 3 -14 6 -6 3 7 2 16 -1 19 -3 4 -6 -2 -5 -13z"/>
<path d="M3830 3449 c-103 -52 -122 -58 -177 -58 -35 -1 -63 -5 -63 -11 0 -5
-8 -10 -17 -10 -15 0 -16 2 -3 10 19 12 27 11 -110 17 -100 4 -121 2 -160 -15
-25 -12 -38 -21 -30 -21 8 0 26 6 40 14 34 19 110 20 110 1 0 -8 8 -17 19 -21
23 -7 58 -132 41 -149 -5 -5 -10 -15 -10 -21 0 -5 4 -3 9 5 7 10 13 2 22 -33
13 -55 31 -60 92 -27 31 17 37 17 37 5 0 -20 8 -19 28 4 10 11 45 25 85 34 38
8 65 11 60 6 -4 -4 -108 -60 -231 -125 -123 -64 -221 -118 -219 -120 6 -6 112
44 179 84 31 18 61 32 65 29 4 -3 17 -28 28 -56 11 -28 23 -51 28 -51 11 0 -1
37 -24 76 -11 17 -19 34 -19 38 0 7 100 59 105 54 2 -2 7 -56 12 -121 l8 -117
-229 0 -229 0 6 -73 c3 -41 9 -187 13 -325 7 -241 6 -252 -12 -259 -25 -11
-290 -10 -485 1 -92 5 -158 5 -161 0 -3 -5 35 -10 86 -11 50 -2 151 -8 223
-14 111 -10 247 -9 338 3 19 3 20 -4 25 -117 3 -66 5 -121 4 -122 -2 -8 -123
-24 -214 -30 -58 -3 -114 -9 -125 -14 -42 -16 150 -6 300 17 l45 6 0 -88 c1
-104 16 -232 30 -248 8 -11 310 -790 337 -871 10 -28 13 -30 58 -27 54 3 65
-6 65 -55 0 -41 9 -63 26 -63 10 0 14 -12 14 -39 0 -37 -2 -39 -47 -56 -57
-21 -190 -93 -199 -106 -3 -5 23 6 59 26 72 39 77 41 77 21 0 -8 5 -18 11 -22
8 -5 10 1 7 20 -4 22 -1 27 19 32 17 5 28 1 37 -11 12 -17 13 -17 19 4 3 11 1
19 -4 15 -5 -3 -9 -1 -9 5 0 15 41 24 53 12 15 -15 24 -14 31 6 4 10 4 14 0
11 -13 -14 -44 13 -44 37 0 20 5 25 25 25 14 0 25 3 25 8 0 4 56 7 124 7 68 0
127 3 131 7 12 12 24 198 25 370 0 97 -10 280 -24 440 -13 150 -27 309 -31
353 -4 51 3 202 20 415 14 184 28 383 32 443 5 85 9 107 21 107 12 0 150 41
219 65 8 3 -3 48 -36 147 -68 199 -57 181 -106 173 l-42 -6 -39 58 c-21 32
-87 126 -148 208 -60 83 -110 151 -110 151 -1 1 -53 -24 -116 -57z m96 -56
c33 -30 75 -103 67 -116 -5 -9 -3 -9 8 0 13 11 20 8 39 -12 13 -14 20 -25 15
-25 -5 0 -2 -6 7 -12 9 -7 45 -52 81 -100 69 -93 85 -141 72 -219 l-7 -39
-228 0 -228 0 -6 88 c-4 48 -9 103 -12 124 -5 36 -5 37 63 76 38 23 81 44 96
47 15 4 27 11 27 16 0 5 15 18 33 29 17 11 27 20 22 20 -6 0 -20 -7 -32 -15
-12 -8 -24 -12 -27 -7 -5 9 -36 138 -36 153 0 15 25 10 46 -8z m-446 -12 c0
-19 -22 -23 -38 -7 -15 15 -14 16 11 16 15 0 27 -4 27 -9z"/>
<path d="M4024 3211 c15 -29 30 -51 33 -48 7 8 -26 74 -44 89 -10 8 -5 -8 11
-41z"/>
<path d="M3912 2910 c0 -19 2 -27 5 -17 2 9 2 25 0 35 -3 9 -5 1 -5 -18z"/>
<path d="M3220 3345 c-17 -10 -20 -14 -9 -15 9 0 22 7 29 15 15 18 12 18 -20
0z"/>
<path d="M3344 3335 c-10 -8 -14 -15 -7 -15 19 0 43 11 43 21 0 13 -14 11 -36
-6z"/>
<path d="M3085 3285 c-16 -8 -23 -14 -15 -14 8 0 26 6 40 14 32 18 15 18 -25
0z"/>
<path d="M3003 3273 c9 -2 23 -2 30 0 6 3 -1 5 -18 5 -16 0 -22 -2 -12 -5z"/>
<path d="M3560 2940 c6 -11 18 -20 27 -20 14 0 14 2 -2 20 -10 11 -22 20 -27
20 -5 0 -4 -9 2 -20z"/>
<path d="M3107 2360 c-3 -11 -1 -22 4 -25 5 -4 12 -18 16 -34 6 -22 12 -26 30
-22 l22 6 -23 44 c-25 51 -41 61 -49 31z"/>
<path d="M2575 2190 c-3 -4 10 -11 29 -14 52 -10 101 -66 157 -182 57 -116 71
-193 49 -274 -16 -59 -74 -115 -132 -128 -34 -8 -37 -10 -15 -11 15 -1 47 9
70 21 23 12 48 21 56 19 7 -1 11 4 9 11 -3 7 5 31 16 53 34 65 28 169 -16 270
-37 86 -72 146 -109 185 -13 13 -23 27 -22 31 1 3 -3 6 -10 6 -7 1 -27 6 -44
11 -18 6 -35 7 -38 2z"/>
<path d="M4740 1980 l-135 -5 -3 -27 -3 -28 235 0 c224 0 236 1 236 19 0 10
-6 23 -13 29 -16 13 -146 18 -317 12z"/>
<path d="M4344 1886 l-34 -34 0 -647 0 -647 28 -28 c23 -23 41 -29 95 -35 37
-4 79 -4 94 -1 l28 7 -27 -26 c-32 -30 -37 -77 -12 -113 13 -19 24 -22 78 -22
77 0 110 26 104 81 -4 39 -55 81 -88 72 -14 -4 -31 6 -55 30 l-35 35 0 181 0
181 436 0 c265 0 433 4 429 9 -3 6 -179 9 -435 8 l-430 -2 0 92 0 93 448 3
447 2 -447 3 -448 2 0 290 0 290 448 2 c384 1 423 2 277 10 -93 4 -295 5 -447
2 l-278 -6 0 67 c0 63 2 69 34 101 l34 34 -105 0 -105 0 -34 -34z"/>
<path d="M3214 1714 c-21 -44 -42 -67 -78 -91 -26 -18 -43 -33 -37 -33 18 0
66 26 80 44 7 9 17 13 22 10 11 -6 79 44 79 59 0 6 -10 2 -22 -9 -56 -49 -59
-49 -32 4 14 28 24 56 22 63 -2 7 -17 -15 -34 -47z"/>
<path d="M2772 1608 c5 -15 28 -23 28 -10 0 5 -7 13 -16 16 -10 4 -14 1 -12
-6z"/>
<path d="M4530 1520 c0 -7 148 -10 424 -10 273 0 427 4 431 10 4 7 -140 10
-424 10 -281 0 -431 -3 -431 -10z"/>
<path d="M4540 1320 c20 -12 850 -12 850 0 0 6 -163 10 -432 10 -273 0 -428
-4 -418 -10z"/>
<path d="M1001 1064 c-14 -18 -21 -41 -21 -71 0 -83 44 -213 72 -213 5 0 6 5
2 12 -4 7 -3 8 5 4 6 -4 9 -11 6 -16 -3 -4 1 -10 8 -13 15 -6 41 32 51 76 8
33 -11 151 -30 189 -17 34 -42 58 -59 58 -7 0 -23 -12 -34 -26z m-4 -126 c-3
-8 -6 -5 -6 6 -1 11 2 17 5 13 3 -3 4 -12 1 -19z m60 -90 c-3 -8 -6 -5 -6 6
-1 11 2 17 5 13 3 -3 4 -12 1 -19z"/>
<path d="M1246 880 c-46 -49 -94 -136 -82 -147 3 -4 6 -1 6 6 0 7 5 9 12 5 7
-4 8 -3 4 4 -9 15 35 89 80 136 20 21 34 39 32 42 -3 2 -26 -18 -52 -46z"/>
<path d="M4535 730 c8 -12 811 -12 840 0 12 5 -162 9 -413 9 -286 1 -431 -2
-427 -9z"/>
<path d="M3730 660 c-20 -12 -9 -21 18 -13 12 3 19 9 16 14 -7 11 -15 11 -34
-1z"/>
<path d="M992 600 c20 -11 48 -34 62 -52 19 -25 24 -28 20 -12 -8 32 -56 74
-90 79 -28 5 -28 4 8 -15z"/>
<path d="M3732 578 c5 -13 48 -22 48 -9 0 9 -24 21 -42 21 -5 0 -8 -5 -6 -12z"/>
<path d="M3680 542 c0 -4 9 -13 20 -20 22 -13 27 -3 8 16 -14 14 -28 16 -28 4z"/>
<path d="M3630 502 c0 -11 22 -32 32 -32 5 0 4 9 -2 20 -11 20 -30 28 -30 12z"/>
<path d="M5157 484 c-50 -27 -60 -74 -26 -118 20 -25 26 -27 87 -24 57 3 67 6
85 29 24 33 16 83 -17 104 -32 21 -97 25 -129 9z"/>
<path d="M1948 464 c13 -9 26 -13 30 -9 8 8 -17 25 -38 25 -9 0 -6 -6 8 -16z"/>
<path d="M2566 465 c25 -19 40 -19 24 0 -7 8 -20 15 -28 15 -13 0 -12 -3 4
-15z"/>
<path d="M1892 440 c15 -24 24 -25 32 -4 3 8 2 12 -3 9 -5 -3 -12 -1 -16 5 -3
5 -10 10 -16 10 -5 0 -4 -9 3 -20z"/>
<path d="M2500 452 c0 -11 22 -32 32 -32 5 0 4 9 -2 20 -11 20 -30 28 -30 12z"/>
<path d="M1102 430 c0 -14 2 -19 5 -12 2 6 2 18 0 25 -3 6 -5 1 -5 -13z"/>
<path d="M1837 433 c-4 -6 0 -19 8 -29 11 -15 14 -16 15 -4 0 21 -16 44 -23
33z"/>
<path d="M2457 433 c-7 -11 10 -40 18 -31 4 4 3 14 -3 24 -5 9 -12 12 -15 7z"/>
<path d="M1899 373 c-150 -3 -189 -6 -199 -18 -11 -13 17 -15 230 -15 225 0
241 1 238 18 -4 20 2 19 -269 15z"/>
<path d="M2529 373 c-159 -3 -199 -6 -209 -18 -11 -13 17 -15 228 -15 235 0
240 0 235 20 -4 14 -13 19 -32 18 -14 -2 -114 -4 -222 -5z"/>
</g>
</svg>
